<svg width="120" height="120" fill="none" xmlns="http://www.w3.org/2000/svg">
<path d="M53.437 55.22a4.576 4.576 0 0 1 4.576 4.577 4.575 4.575 0 1 1-9.151 0 4.576 4.576 0 0 1 4.575-4.577ZM11.684 23.36a3.684 3.684 0 1 0 0-7.368 3.684 3.684 0 0 0 0 7.368ZM95.71 40.24a3.684 3.684 0 0 0 3.684-6.382l-16.221-9.365c-1.717-.992-3.177-1.017-4.884-.04l-7.629 4.43.021-8.823c-.008-1.968-.758-3.22-2.476-4.21L42.073.759c-1.717-.993-3.176-1.017-4.886-.04l-12.49 7.186c-.915.452-1.585 1.047-2.01 1.783-.426.736-.606 1.614-.54 2.634l.024 30.283c.008 1.968.759 3.22 2.476 4.21l13.128 7.582c1.35.779 3.827.738 5.032-1.349.283-.49.444-1.052.482-1.685l.008-25.519L49.8 29.6l.062 13.779c-.077 1.265.551 2.446 1.777 3.154a3.508 3.508 0 0 0 4.839-1.297 3.935 3.935 0 0 0 .553-1.807l.013-15.044c-.008-1.97-.758-3.22-2.476-4.212l-13.127-7.581c-1.718-.992-3.918-.298-4.91 1.42-.283.49-.443 1.052-.481 1.684l-.009 25.52-6.502-3.755-.053-27.681 10.13-5.93 23.925 13.814.062 13.78c.047 1.336.674 2.516 1.778 3.154.736.425 2.298.836 3.742.033l11.962-6.836 14.626 8.447Zm10.153 1.609a3.684 3.684 0 1 0 6.38 3.685 3.684 3.684 0 0 0-6.38-3.685Zm-56.63 64.343a3.685 3.685 0 0 0 3.683 6.381l16.22-9.366c1.719-.992 2.468-2.244 2.477-4.212l-.021-8.823 7.628 4.43c1.71.977 3.167.953 4.885-.039l26.133-15.09c1.718-.992 2.467-2.244 2.476-4.212l.024-14.412c.066-1.02-.114-1.898-.538-2.634-.425-.736-1.096-1.332-2.012-1.783L83.957 41.31c-1.709-.976-3.168-.953-4.885.04l-13.129 7.58c-1.348.78-2.551 2.947-1.347 5.033.284.49.689.91 1.218 1.26L87.906 67.99l-6.502 3.755-11.962-6.836c-1.057-.699-2.393-.746-3.62-.037a3.508 3.508 0 0 0-1.296 4.839c.354.614.759 1.034 1.288 1.383l13.02 7.534c1.709.976 3.167.952 4.885-.04l13.128-7.58c1.717-.992 2.216-3.244 1.225-4.962-.284-.49-.689-.91-1.218-1.26L74.76 52.02l6.503-3.755 23.995 13.795.07 11.74-23.925 13.815-11.962-6.836c-1.18-.627-2.516-.674-3.62-.037-.736.426-1.873 1.573-1.901 3.225l-.061 13.78-14.626 8.445Zm-6.47 7.99a3.683 3.683 0 1 0-6.379 3.683 3.683 3.683 0 1 0 6.38-3.683ZM15.368 32.958a3.684 3.684 0 0 0-7.367 0v18.733c0 1.984.708 3.26 2.409 4.25l7.65 4.394-7.65 4.393C8.709 65.72 8 66.994 8 68.978V99.16c-.001 1.985.707 3.26 2.408 4.252l12.467 7.226c.85.567 1.7.851 2.55.851.85 0 1.7-.284 2.55-.851l26.208-15.161c1.701-.992 2.409-2.267 2.408-4.251V76.063c0-1.559-1.274-3.684-3.682-3.684-.567 0-1.133.142-1.7.426l-22.1 12.751v-7.51l11.9-6.942c1.132-.566 1.841-1.7 1.841-3.117a3.508 3.508 0 0 0-3.542-3.543 3.92 3.92 0 0 0-1.842.425l-13.032 7.51c-1.701.992-2.41 2.267-2.41 4.251v15.161c0 1.984 1.7 3.543 3.684 3.543.567 0 1.133-.142 1.7-.425l22.1-12.753v7.51l-23.942 13.886-10.2-5.81v-27.63l11.9-6.943c1.133-.708 1.842-1.842 1.842-3.117 0-.85-.426-2.41-1.842-3.26l-11.9-6.943V32.96" fill="url(#a)"/>
<defs><linearGradient id="a" x1="6.695" y1="59.854" x2="114.06" y2="59.854" gradientUnits="userSpaceOnUse"><stop stop-color="#1047B4"/><stop offset="1" stop-color="#0CF"/></linearGradient></defs>
<style>@media (prefers-color-scheme: light) { svg { filter: none; } }
@media (prefers-color-scheme: dark) { svg { filter: contrast(0.3846153846153846) brightness(4.5); } }
</style>
</svg>